<svg width="3225" height="2629" viewBox="0 0 3225 2629" fill="none" xmlns="http://www.w3.org/2000/svg">
<path d="M700.277 884.455C697.177 884.455 694.298 884.234 691.197 884.234C309.389 884.234 0 1192.72 0 1573.4C0 1788.65 99.2171 1980.43 254.022 2106.88L700.277 884.455Z" fill="#0A0A4C"/>
<path d="M2241.24 1613.23C2320.97 1394.66 2531.14 1247.84 2764.35 1247.84C2789.15 1247.84 2814.62 1249.61 2840.31 1253.15C2840.75 1244.96 2840.98 1236.98 2840.98 1228.57C2840.98 934.479 2598.25 692.43 2303.48 692.43C2262.73 692.43 2222.64 697.081 2183.88 705.939C2008.7 746.022 1861.43 872.029 1798.31 1045.21L1354.05 2262.32H2004.05L2241.24 1613.23Z" fill="#0A0A4C"/>
<path d="M2827.47 1348.16C2806.87 1345.28 2785.83 1343.73 2764.35 1343.73C2571.01 1343.73 2397.38 1464.86 2331.38 1646.01L2106.37 2262.54H2764.35C3017.04 2262.54 3225 2055.04 3225 1803.02C3225.22 1572.49 3050.93 1379.16 2827.47 1348.16Z" fill="#0A0A4C"/>
<path d="M1708.4 1012.67C1777.49 823.325 1930.75 680.265 2122.98 623.352C1981.69 455.711 1770.41 348.085 1535.65 348.085C1213.64 348.085 924.182 550.051 814.113 851.892L799.275 892.418L335.081 2164.01C438.949 2226.46 560.755 2262.33 690.978 2262.33H1252.17L1708.4 1012.67Z" fill="#0A0A4C"/>
</svg>
